<?xml version="1.0" encoding="UTF-8" standalone="no"?>
<svg width="21px" height="20px" viewBox="0 0 21 20" version="1.1" xmlns="http://www.w3.org/2000/svg"
     xmlns:xlink="http://www.w3.org/1999/xlink">
    <g id="Dashboard" stroke="none" stroke-width="1" fill="none" fill-rule="evenodd">
        <g id="Marketplace" transform="translate(-344.000000, -479.000000)" fill="#000">
            <g id="Menu" transform="translate(0.000000, 459.000000)">
                <g id="Group-5" transform="translate(302.000000, 20.000000)">
                    <g id="market" transform="translate(42.000000, 0.000000)">
                        <path d="M2.23083501,1.99079514 C2.35966618,0.891309342 3.36944092,0 4.45920115,0 L16.8733706,0 C17.9752321,0 18.9721875,0.885181129 19.1017368,1.99079514 L20.9786782,18.0092049 C21.1075094,19.1086907 20.3191514,20 19.2087124,20 L2.12385936,20 C1.01750306,20 0.224344304,19.1148189 0.353893542,18.0092049 L2.23083501,1.99079514 Z M3.13373044,1.99339768 C3.19801661,1.44475929 3.69198584,1 4.2417588,1 L17.0224294,1 C17.5700904,1 18.0661935,1.44494629 18.1304578,1.99339768 L20.0067894,18.0066023 C20.0710755,18.5552407 19.672687,19 19.129351,19 L2.13483725,19 C1.58595525,19 1.19313463,18.5550537 1.25739888,18.0066023 L3.13373044,1.99339768 Z M6.66624857,8 L8.26624859,8 L8.26624859,9.60000002 L6.66624857,9.60000002 L6.66624857,8 Z M9.66624857,8 L11.2662486,8 L11.2662486,9.60000002 L9.66624857,9.60000002 L9.66624857,8 Z M12.6662486,8 L14.2662486,8 L14.2662486,9.60000002 L12.6662486,9.60000002 L12.6662486,8 Z M6.66624857,11 L8.26624859,11 L8.26624859,12.6 L6.66624857,12.6 L6.66624857,11 Z M9.66624857,11 L11.2662486,11 L11.2662486,12.6 L9.66624857,12.6 L9.66624857,11 Z M12.6662486,11 L14.2662486,11 L14.2662486,12.6 L12.6662486,12.6 L12.6662486,11 Z M6.66624857,14 L8.26624859,14 L8.26624859,15.6 L6.66624857,15.6 L6.66624857,14 Z M9.66624857,14 L11.2662486,14 L11.2662486,15.6 L9.66624857,15.6 L9.66624857,14 Z M12.6662486,14 L14.2662486,14 L14.2662486,15.6 L12.6662486,15.6 L12.6662486,14 Z M5.11724784,2.4882822 C5.17903643,2.21861139 5.44088575,2.07846832 5.69249683,2.16512966 C5.69249683,2.16512966 7.74984867,3 10.4998779,3 C13.2499072,3 15.3319899,2.1606673 15.3319899,2.1606673 C15.5817274,2.0719332 15.8299496,2.21207428 15.8895609,2.4882822 L15.8946188,2.5117178 C15.9528192,2.78138861 15.7900721,3.07191753 15.5273206,3.15625 C15.5273206,3.15625 13.2498487,4 10.4998779,4 C7.74990719,4 5.45863717,3.15187848 5.45863717,3.15187848 C5.20533886,3.06799831 5.04859173,2.78792572 5.11187814,2.5117178 L5.11724784,2.4882822 Z"
                              id="Combined-Shape"></path>
                    </g>
                </g>
            </g>
        </g>
    </g>
</svg>